<svg width="251" height="353" viewBox="0 0 251 353" fill="none" xmlns="http://www.w3.org/2000/svg">
<g filter="url(#filter0_f_1664_5279)">
<path d="M354.555 273.213C354.652 272.884 354.777 272.52 354.909 272.219C363.847 245.917 364.543 219.585 351.862 194.451C339.571 170.103 317.126 151.924 290.954 144.41C269.715 138.304 248.014 138.589 226.247 141.271C219.862 142.06 217.523 140.498 217.464 133.972C217.213 114.976 213.21 96.7065 205.521 79.5063C191.365 47.6816 167.789 26.1841 133.211 20.3156C80.0491 11.2711 34.5061 42.1855 20.8506 94.6827C9.33314 138.95 36.3636 189.706 78.989 205.598C102.574 214.381 126.613 215.658 151.364 212.907C162.354 211.682 162.285 211.626 163.019 222.38C165.055 253.513 173.37 282.021 195.26 305.231C241.366 354.139 331.203 340.306 354.555 273.213ZM236.011 320.116C206.394 310.076 188.423 287.62 179.895 258.179C175.932 244.493 175.033 229.87 173.275 215.594C173.055 213.547 175.542 209.453 177.351 209.066C204.83 203.119 231.997 194.465 260.568 196.589C283.469 198.276 299.371 209.996 303.969 228.87C308.7 248.144 298.259 268.142 279.716 275.445C261.574 282.608 240.243 275.493 230.979 258.814C228.648 254.574 225.977 247.663 223.531 242.161L234.793 238.708L212.7 217.782L205.37 247.734L214.032 245.072C222.435 279.37 255.43 298.475 287.4 282.895C305.334 274.161 315.11 258.697 315.31 238.728C315.498 218.983 306.78 203.743 289.169 194.184C271.156 184.414 251.682 184.362 232.275 187.457C208.23 191.31 184.525 197.134 160.538 201.268C136.332 205.458 112.157 205.821 88.5165 198.159C45.0742 184.108 19.8325 139.658 31.6698 94.7188C35.1139 81.6629 40.6504 70.2598 48.606 60.6015C54.2966 53.6426 61.2426 47.5352 69.4783 42.3075C81.7718 34.5042 95.9248 29.9723 110.345 29.0437C139.41 27.1943 167.662 40.3774 184.7 63.7638C200.935 86.0266 206.933 111.472 207.206 138.654C207.231 140.659 205.019 144.277 203.335 144.651C175.845 150.472 148.69 159.251 120.096 157.226C96.7827 155.551 80.7317 143.593 76.236 124.452C71.7461 105.375 82.3587 85.5187 101.05 78.1042C118.328 71.2255 140.284 78.56 149.272 94.6633C151.941 99.4718 153.608 104.803 155.819 109.821L145.33 113.031L167.423 133.957L174.753 104.005L165.845 106.757C156.814 74.2798 125.646 55.6777 94.1163 70.1581C75.0999 78.8826 65.3473 94.599 65.171 115.171C65.0114 135.23 74.0215 150.535 92.1601 159.941C112.373 170.46 133.821 168.8 155.192 165.269C173.212 162.324 191.003 157.907 208.943 154.43C236.846 148.947 264.839 146.512 292.256 155.453C336.598 169.948 360.937 216.344 348.287 261.435C334.723 309.748 283.883 336.331 236.011 320.116Z" fill="#CFCDCD" fill-opacity="0.25"/>
</g>
<defs>
<filter id="filter0_f_1664_5279" x="0.1875" y="0.752502" width="379.329" height="351.66" filterUnits="userSpaceOnUse" color-interpolation-filters="sRGB">
<feFlood flood-opacity="0" result="BackgroundImageFix"/>
<feBlend mode="normal" in="SourceGraphic" in2="BackgroundImageFix" result="shape"/>
<feGaussianBlur stdDeviation="9" result="effect1_foregroundBlur_1664_5279"/>
</filter>
</defs>
</svg>
