<svg width="16" height="16" viewBox="0 0 16 16" fill="none" xmlns="http://www.w3.org/2000/svg">
<path d="M14.9727 7.40853L7.59375 0.411831C7.53711 0.358486 7.46484 0.328613 7.38867 0.328613H5.66016C5.51563 0.328613 5.44922 0.524922 5.55859 0.627344L12.3984 7.11406H0.96875C0.882813 7.11406 0.8125 7.19088 0.8125 7.28477V8.56504C0.8125 8.65893 0.882813 8.73574 0.96875 8.73574H12.3965L5.55664 15.2225C5.44727 15.327 5.51367 15.5212 5.6582 15.5212H7.44531C7.48242 15.5212 7.51953 15.5063 7.54688 15.4785L14.9727 8.44128C15.0403 8.37705 15.0945 8.29771 15.1316 8.20863C15.1688 8.11955 15.188 8.02279 15.188 7.9249C15.188 7.82701 15.1688 7.73026 15.1316 7.64118C15.0945 7.5521 15.0403 7.47276 14.9727 7.40853Z" fill="white"/>
</svg>
