<svg width="382" height="85" viewBox="0 0 382 85" fill="none" xmlns="http://www.w3.org/2000/svg">
<g filter="url(#filter0_d_1437_2638)">
<path d="M148.542 25.2387C148.492 25.1214 148.443 24.9873 148.41 24.87C144.8 15.2158 138.817 7.48904 129.274 3.24857C120.027 -0.857819 109.313 -0.807537 100.034 3.18152C92.5011 6.41635 86.3366 11.5954 80.7161 17.4785C79.0679 19.2048 78.0295 19.3054 76.4801 17.4449C71.9474 12.048 66.5082 7.74045 60.2613 4.60619C48.7235 -1.20979 36.9055 -1.8467 25.5985 4.58943C8.20946 14.4783 2.39113 34.0549 10.7972 52.3408C17.8847 67.7607 37.5648 75.9903 53.5364 70.543C62.371 67.5261 69.5739 62.2465 76.0351 55.6427C78.903 52.7096 78.8701 52.7096 81.6062 55.626C89.5013 64.0901 98.5832 70.3251 110.319 71.8504C135.043 75.0684 157.591 49.9943 148.542 25.2387ZM125.516 66.554C114.654 70.6268 104.22 68.3977 94.8581 61.9448C90.5067 58.9446 86.8146 54.9555 82.9577 51.2682C82.4138 50.7318 82.1666 48.9719 82.5951 48.4356C89.0892 40.2731 94.8581 31.4067 103.561 25.3057C110.533 20.4116 117.851 20.0429 123.604 24.3839C129.488 28.8087 131.186 37.0047 127.576 43.4576C124.049 49.7764 116.252 52.7431 109.676 50.1284C108.011 49.458 105.621 48.1004 103.627 47.0947L106.05 43.4576L94.7922 42.6364L99.7205 52.961L101.583 50.1619C112.049 58.0395 126.01 55.7768 131.532 43.7929C134.63 37.0718 133.806 30.334 129.175 24.5515C124.593 18.8361 118.511 16.5063 111.209 17.8975C103.742 19.3221 98.1381 23.8811 93.2923 29.3283C87.2926 36.0829 81.8534 43.3236 75.9362 50.1452C69.9695 57.0339 63.1128 62.8163 54.5254 66.1685C38.7516 72.3364 21.0658 65.498 13.9124 49.81C11.8356 45.251 10.7478 40.6754 10.7643 36.0326C10.7643 32.6972 11.3247 29.3116 12.462 25.8756C14.1597 20.7468 17.1595 16.1208 21.0823 12.467C28.9939 5.10901 40.202 2.25968 50.586 4.97493C60.4756 7.55608 68.1729 13.4559 74.634 21.1993C75.112 21.7692 75.3263 23.328 74.9307 23.8308C68.4037 31.9598 62.6677 40.8597 53.9814 46.9942C46.894 51.9889 39.4768 52.3241 33.6915 47.8825C27.9226 43.4576 26.3073 35.2616 29.9334 28.7417C33.2794 22.7078 41.3064 19.6574 47.6686 22.1715C49.5641 22.9257 51.2948 24.0654 53.1079 24.9873L50.8498 28.373L62.1073 29.1942L57.1791 18.8696L55.2671 21.7524C45.0479 14.5453 31.73 16.5231 26.0765 28.088C22.6646 35.0605 23.5547 41.8654 28.3346 47.8154C32.9992 53.6147 39.1801 55.8941 46.5973 54.3354C54.8715 52.609 60.6404 47.0947 65.9478 41.0609C70.431 35.9823 74.5022 30.5351 78.8371 25.3225C85.562 17.1935 93.0286 9.91935 103 6.04762C119.137 -0.20415 137.02 7.40524 143.976 23.328C151.426 40.3904 143.07 59.967 125.516 66.554Z" fill="white"/>
<path d="M191.449 2.14087C202.361 2.14087 209.943 9.02954 209.943 19.4045C209.943 28.757 203.976 34.4053 194.383 37.1876V37.3888C198.125 38.8302 200.449 39.3498 204.289 49.9258L212.481 72.2176H207.223L202.064 56.496C196.707 40.3554 192.768 38.9307 183.472 38.9307H172.247V72.2176H167.698V2.14087H191.449ZM184.873 35.126C197.713 35.126 205.08 29.1592 205.08 19.4045C205.08 11.2922 198.504 6.34782 191.136 6.34782H172.247V35.126H184.873Z" fill="white"/>
<path d="M254.001 2.14087H258.55L283.719 72.2176H278.774L270.088 47.3447H242.875L234.387 72.2176H230.035L254.001 2.14087ZM244.293 43.1377H268.654L256.325 7.68868H256.127L244.293 43.1377Z" fill="white"/>
<path d="M299.064 2.14087H304.421L314.425 44.8808C315.134 47.8642 315.645 50.4286 318.876 66.8709H319.074C319.584 63.6864 323.112 46.0038 323.623 43.8584L333.825 2.14087H338.473L349.286 46.4228C350.506 51.451 352.22 59.9823 353.522 66.8709H353.72C354.132 63.9881 356.654 50.7303 357.56 46.8251L367.977 2.14087H373.235L355.648 72.2176H351.297L340.995 30.299C338.968 21.8683 336.957 12.3147 336.248 7.18586H336.051C334.732 15.2981 334.023 19.0022 331.304 30.1984L321.101 72.2344H316.749L299.064 2.14087Z" fill="white"/>
<path d="M219.436 72.2177C220.42 72.2177 221.217 71.4073 221.217 70.4076C221.217 69.4078 220.42 68.5974 219.436 68.5974C218.453 68.5974 217.656 69.4078 217.656 70.4076C217.656 71.4073 218.453 72.2177 219.436 72.2177Z" fill="white"/>
<path d="M296.294 72.2177C297.277 72.2177 298.074 71.4073 298.074 70.4076C298.074 69.4078 297.277 68.5974 296.294 68.5974C295.311 68.5974 294.514 69.4078 294.514 70.4076C294.514 71.4073 295.311 72.2177 296.294 72.2177Z" fill="white"/>
<path d="M373.235 72.2177C374.218 72.2177 375.015 71.4073 375.015 70.4076C375.015 69.4078 374.218 68.5974 373.235 68.5974C372.252 68.5974 371.455 69.4078 371.455 70.4076C371.455 71.4073 372.252 72.2177 373.235 72.2177Z" fill="white"/>
</g>
<defs>
<filter id="filter0_d_1437_2638" x="0.71875" y="0" width="380.578" height="84.7969" filterUnits="userSpaceOnUse" color-interpolation-filters="sRGB">
<feFlood flood-opacity="0" result="BackgroundImageFix"/>
<feColorMatrix in="SourceAlpha" type="matrix" values="0 0 0 0 0 0 0 0 0 0 0 0 0 0 0 0 0 0 127 0" result="hardAlpha"/>
<feOffset dy="6.28125"/>
<feGaussianBlur stdDeviation="3.14062"/>
<feComposite in2="hardAlpha" operator="out"/>
<feColorMatrix type="matrix" values="0 0 0 0 0 0 0 0 0 0 0 0 0 0 0 0 0 0 0.25 0"/>
<feBlend mode="normal" in2="BackgroundImageFix" result="effect1_dropShadow_1437_2638"/>
<feBlend mode="normal" in="SourceGraphic" in2="effect1_dropShadow_1437_2638" result="shape"/>
</filter>
</defs>
</svg>
