<svg width="20" height="20" viewBox="0 0 20 20" fill="none" xmlns="http://www.w3.org/2000/svg">
<path d="M19.2 20H0.8C0.3575 20 0 19.6425 0 19.2V0.799999C0 0.3575 0.3575 0 0.8 0H19.2C19.6425 0 20 0.3575 20 0.799999V19.2C20 19.6425 19.6425 20 19.2 20ZM6.7 5.4C6.1475 5.4 5.7 5.8475 5.7 6.4C5.7 6.9525 6.1475 7.4 6.7 7.4C7.2525 7.4 7.7 6.9525 7.7 6.4C7.7 5.8475 7.2525 5.4 6.7 5.4ZM6.7 9C6.1475 9 5.7 9.4475 5.7 10C5.7 10.5525 6.1475 11 6.7 11C7.2525 11 7.7 10.5525 7.7 10C7.7 9.4475 7.2525 9 6.7 9ZM6.7 12.6C6.1475 12.6 5.7 13.0475 5.7 13.6C5.7 14.1525 6.1475 14.6 6.7 14.6C7.2525 14.6 7.7 14.1525 7.7 13.6C7.7 13.0475 7.2525 12.6 6.7 12.6ZM14.3 5.8C14.3 5.69 14.21 5.6 14.1 5.6H9.5C9.39 5.6 9.3 5.69 9.3 5.8V7C9.3 7.11 9.39 7.2 9.5 7.2H14.1C14.21 7.2 14.3 7.11 14.3 7V5.8ZM14.3 9.4C14.3 9.29 14.21 9.2 14.1 9.2H9.5C9.39 9.2 9.3 9.29 9.3 9.4V10.6C9.3 10.71 9.39 10.8 9.5 10.8H14.1C14.21 10.8 14.3 10.71 14.3 10.6V9.4ZM14.3 13C14.3 12.89 14.21 12.8 14.1 12.8H9.5C9.39 12.8 9.3 12.89 9.3 13V14.2C9.3 14.31 9.39 14.4 9.5 14.4H14.1C14.21 14.4 14.3 14.31 14.3 14.2V13Z" fill="white"/>
</svg>
