<svg width="20" height="21" viewBox="0 0 20 21" fill="none" xmlns="http://www.w3.org/2000/svg">
<path d="M20 0.376999H0V20.377H20V0.376999ZM11.1444 4.88811L12.3222 3.71033L13.8889 5.277L15.4556 3.71033L16.6333 4.88811L15.0667 6.45478L16.6333 8.02144L15.4556 9.19922L13.8889 7.64367L12.3222 9.21033L11.1444 8.03256L12.7111 6.46589L11.1444 4.88811ZM3.61111 5.62144H9.16667V7.28811H3.61111V5.62144ZM9.44444 14.8214H7.22222V17.0437H5.55556V14.8214H3.33333V13.1548H5.55556V10.9326H7.22222V13.1548H9.44444V14.8214ZM16.6667 16.2103H11.1111V14.5437H16.6667V16.2103ZM16.6667 13.4326H11.1111V11.7659H16.6667V13.4326Z" fill="white"/>
</svg>
