<svg width="181" height="86" viewBox="0 0 181 86" fill="none" xmlns="http://www.w3.org/2000/svg">
<path d="M1.81414 0.729858H6.9882C8.16184 0.729858 9.153 0.908768 9.96167 1.26659C10.7775 1.6244 11.3965 2.15398 11.8187 2.8553C12.2481 3.54947 12.4628 4.40466 12.4628 5.42086C12.4628 6.1365 12.3161 6.79131 12.0227 7.38528C11.7365 7.97211 11.3214 8.47305 10.7775 8.88812C10.2408 9.29604 9.59669 9.60018 8.84528 9.80056L8.26561 10.026H3.40285L3.38139 8.34066H7.0526C7.79687 8.34066 8.41589 8.21185 8.90968 7.95422C9.40347 7.68943 9.7756 7.33519 10.0261 6.89149C10.2766 6.4478 10.4018 5.95759 10.4018 5.42086C10.4018 4.81973 10.2837 4.29373 10.0475 3.84288C9.81139 3.39203 9.43925 3.04494 8.93115 2.80163C8.43021 2.55116 7.78255 2.42592 6.9882 2.42592H3.88591V16.3594H1.81414V0.729858ZM10.9492 16.3594L7.14922 9.27457L9.30686 9.26383L13.1606 16.2306V16.3594H10.9492ZM33.1422 14.674V16.3594H24.8658V14.674H33.1422ZM25.2845 0.729858V16.3594H23.2127V0.729858H25.2845ZM32.0473 7.44969V9.13502H24.8658V7.44969H32.0473ZM33.0348 0.729858V2.42592H24.8658V0.729858H33.0348ZM49.3452 2.11462L44.1712 16.3594H42.0565L48.0141 0.729858H49.3774L49.3452 2.11462ZM53.682 16.3594L48.4972 2.11462L48.465 0.729858H49.8283L55.8074 16.3594H53.682ZM53.4136 10.5734V12.2695H44.6328V10.5734H53.4136ZM75.2309 14.674V16.3594H67.4161V14.674H75.2309ZM67.824 0.729858V16.3594H65.7522V0.729858H67.824ZM7.60007 36.1146L2.42601 50.3594H0.311302L6.26898 34.7299H7.63227L7.60007 36.1146ZM11.9368 50.3594L6.75204 36.1146L6.71983 34.7299H8.08312L14.0623 50.3594H11.9368ZM11.6685 44.5734V46.2695H2.8876V44.5734H11.6685ZM32.7557 34.7299H34.8168V45.3034C34.8168 46.477 34.5556 47.4539 34.0331 48.2339C33.5107 49.014 32.8166 49.6008 31.9506 49.9944C31.0919 50.3808 30.158 50.5741 29.1489 50.5741C28.0898 50.5741 27.1308 50.3808 26.2721 49.9944C25.4205 49.6008 24.7442 49.014 24.2432 48.2339C23.7494 47.4539 23.5025 46.477 23.5025 45.3034V34.7299H25.5528V45.3034C25.5528 46.1192 25.7031 46.7919 26.0037 47.3215C26.3043 47.8511 26.7229 48.2447 27.2596 48.5023C27.8035 48.7599 28.4333 48.8887 29.1489 48.8887C29.8717 48.8887 30.5015 48.7599 31.0382 48.5023C31.5821 48.2447 32.0043 47.8511 32.3049 47.3215C32.6055 46.7919 32.7557 46.1192 32.7557 45.3034V34.7299ZM51.6961 34.7299V50.3594H49.6565V34.7299H51.6961ZM56.7199 34.7299V36.4259H44.6435V34.7299H56.7199ZM77.0987 41.4497V43.135H68.6398V41.4497H77.0987ZM68.9619 34.7299V50.3594H66.8901V34.7299H68.9619ZM78.9021 34.7299V50.3594H76.841V34.7299H78.9021ZM100.365 48.674V50.3594H92.0887V48.674H100.365ZM92.5074 34.7299V50.3594H90.4356V34.7299H92.5074ZM99.2701 41.4497V43.135H92.0887V41.4497H99.2701ZM100.258 34.7299V36.4259H92.0887V34.7299H100.258ZM122.805 34.7299V50.3594H120.722L112.854 38.3045V50.3594H110.782V34.7299H112.854L120.755 46.817V34.7299H122.805ZM139.781 34.7299V50.3594H137.741V34.7299H139.781ZM144.805 34.7299V36.4259H132.728V34.7299H144.805ZM157.197 34.7299V50.3594H155.125V34.7299H157.197ZM178.252 45.3893H180.313C180.206 46.3769 179.923 47.2607 179.465 48.0407C179.007 48.8208 178.359 49.4398 177.522 49.8978C176.685 50.3486 175.64 50.5741 174.387 50.5741C173.471 50.5741 172.638 50.4023 171.886 50.0588C171.142 49.7153 170.502 49.2287 169.965 48.5989C169.428 47.962 169.013 47.1998 168.72 46.3124C168.433 45.4179 168.29 44.4232 168.29 43.3282V41.7717C168.29 40.6768 168.433 39.6856 168.72 38.7983C169.013 37.9037 169.432 37.138 169.976 36.5011C170.527 35.8641 171.189 35.3739 171.961 35.0304C172.734 34.6869 173.604 34.5152 174.57 34.5152C175.751 34.5152 176.749 34.737 177.565 35.1807C178.381 35.6244 179.014 36.2399 179.465 37.0271C179.923 37.8071 180.206 38.7124 180.313 39.7429H178.252C178.152 39.0129 177.966 38.3868 177.694 37.8643C177.422 37.3348 177.035 36.9269 176.534 36.6406C176.033 36.3544 175.379 36.2112 174.57 36.2112C173.876 36.2112 173.264 36.3436 172.734 36.6084C172.212 36.8732 171.772 37.2489 171.414 37.7355C171.063 38.2222 170.799 38.8054 170.62 39.4853C170.441 40.1651 170.351 40.9201 170.351 41.7503V43.3282C170.351 44.094 170.43 44.8132 170.587 45.4859C170.752 46.1586 170.999 46.749 171.328 47.2571C171.657 47.7652 172.076 48.1659 172.584 48.4594C173.092 48.7456 173.693 48.8887 174.387 48.8887C175.268 48.8887 175.969 48.7492 176.491 48.4701C177.014 48.191 177.407 47.7902 177.672 47.2678C177.944 46.7454 178.137 46.1192 178.252 45.3893ZM5.92548 80.6362L9.02776 69.7299H10.5306L9.6611 73.97L6.32265 85.3594H4.83055L5.92548 80.6362ZM2.71584 69.7299L5.18479 80.4215L5.92548 85.3594H4.44411L0.654808 69.7299H2.71584ZM14.5453 80.4107L16.9606 69.7299H19.0324L15.2538 85.3594H13.7724L14.5453 80.4107ZM10.756 69.7299L13.7724 80.6362L14.8674 85.3594H13.3753L10.1549 73.97L9.27466 69.7299H10.756ZM39.1106 83.674V85.3594H30.8343V83.674H39.1106ZM31.2529 69.7299V85.3594H29.1811V69.7299H31.2529ZM38.0157 76.4497V78.135H30.8343V76.4497H38.0157ZM39.0033 69.7299V71.4259H30.8343V69.7299H39.0033ZM59.0063 83.674V85.3594H51.1916V83.674H59.0063ZM51.5995 69.7299V85.3594H49.5277V69.7299H51.5995ZM78.7088 83.674V85.3594H70.8941V83.674H78.7088ZM71.302 69.7299V85.3594H69.2302V69.7299H71.302ZM100.955 69.7299V85.3594H98.8729L91.0045 73.3045V85.3594H88.9327V69.7299H91.0045L98.9052 81.817V69.7299H100.955ZM122.408 83.674V85.3594H114.131V83.674H122.408ZM114.55 69.7299V85.3594H112.478V69.7299H114.55ZM121.313 76.4497V78.135H114.131V76.4497H121.313ZM122.3 69.7299V71.4259H114.131V69.7299H122.3ZM141.155 81.4091C141.155 81.0441 141.098 80.722 140.983 80.4429C140.876 80.1567 140.683 79.8991 140.403 79.6701C140.131 79.4411 139.752 79.2228 139.266 79.0153C138.786 78.8077 138.178 78.5966 137.441 78.3819C136.668 78.1529 135.97 77.8989 135.347 77.6198C134.725 77.3335 134.192 77.0079 133.748 76.6429C133.304 76.2779 132.964 75.8593 132.728 75.387C132.492 74.9146 132.374 74.3743 132.374 73.7661C132.374 73.1578 132.499 72.596 132.75 72.0807C133 71.5655 133.358 71.1182 133.823 70.7389C134.295 70.3525 134.857 70.0519 135.508 69.8372C136.16 69.6225 136.886 69.5152 137.688 69.5152C138.861 69.5152 139.856 69.7406 140.672 70.1914C141.495 70.6351 142.121 71.2184 142.55 71.9412C142.98 72.6568 143.194 73.4225 143.194 74.2384H141.133C141.133 73.6516 141.008 73.1327 140.758 72.6819C140.507 72.2239 140.128 71.866 139.62 71.6084C139.112 71.3436 138.468 71.2112 137.688 71.2112C136.95 71.2112 136.342 71.3222 135.863 71.544C135.383 71.7658 135.025 72.0664 134.789 72.4457C134.56 72.825 134.446 73.2579 134.446 73.7446C134.446 74.0738 134.514 74.3743 134.65 74.6463C134.793 74.9111 135.011 75.158 135.305 75.387C135.605 75.616 135.984 75.8271 136.442 76.0203C136.908 76.2135 137.462 76.3996 138.106 76.5785C138.994 76.829 139.759 77.1081 140.403 77.4158C141.047 77.7235 141.577 78.0706 141.992 78.4571C142.414 78.8363 142.726 79.2693 142.926 79.7559C143.134 80.2354 143.237 80.7793 143.237 81.3876C143.237 82.0245 143.109 82.6006 142.851 83.1159C142.593 83.6311 142.225 84.0712 141.745 84.4362C141.266 84.8012 140.69 85.0839 140.017 85.2842C139.351 85.4775 138.607 85.5741 137.784 85.5741C137.061 85.5741 136.349 85.4739 135.648 85.2735C134.954 85.0731 134.321 84.7726 133.748 84.3718C133.183 83.971 132.728 83.4772 132.385 82.8904C132.048 82.2964 131.88 81.6094 131.88 80.8294H133.941C133.941 81.3661 134.045 81.8277 134.253 82.2141C134.46 82.5934 134.743 82.9083 135.101 83.1588C135.466 83.4093 135.877 83.5953 136.335 83.717C136.8 83.8315 137.283 83.8887 137.784 83.8887C138.507 83.8887 139.119 83.7886 139.62 83.5882C140.121 83.3878 140.5 83.1015 140.758 82.7294C141.022 82.3573 141.155 81.9172 141.155 81.4091ZM162.06 81.4091C162.06 81.0441 162.002 80.722 161.888 80.4429C161.781 80.1567 161.587 79.8991 161.308 79.6701C161.036 79.4411 160.657 79.2228 160.17 79.0153C159.691 78.8077 159.083 78.5966 158.345 78.3819C157.573 78.1529 156.875 77.8989 156.252 77.6198C155.63 77.3335 155.096 77.0079 154.653 76.6429C154.209 76.2779 153.869 75.8593 153.633 75.387C153.397 74.9146 153.279 74.3743 153.279 73.7661C153.279 73.1578 153.404 72.596 153.654 72.0807C153.905 71.5655 154.263 71.1182 154.728 70.7389C155.2 70.3525 155.762 70.0519 156.413 69.8372C157.064 69.6225 157.791 69.5152 158.592 69.5152C159.766 69.5152 160.761 69.7406 161.577 70.1914C162.4 70.6351 163.026 71.2184 163.455 71.9412C163.884 72.6568 164.099 73.4225 164.099 74.2384H162.038C162.038 73.6516 161.913 73.1327 161.662 72.6819C161.412 72.2239 161.033 71.866 160.525 71.6084C160.016 71.3436 159.372 71.2112 158.592 71.2112C157.855 71.2112 157.247 71.3222 156.767 71.544C156.288 71.7658 155.93 72.0664 155.694 72.4457C155.465 72.825 155.351 73.2579 155.351 73.7446C155.351 74.0738 155.419 74.3743 155.554 74.6463C155.698 74.9111 155.916 75.158 156.209 75.387C156.51 75.616 156.889 75.8271 157.347 76.0203C157.812 76.2135 158.367 76.3996 159.011 76.5785C159.898 76.829 160.664 77.1081 161.308 77.4158C161.952 77.7235 162.482 78.0706 162.897 78.4571C163.319 78.8363 163.63 79.2693 163.831 79.7559C164.038 80.2354 164.142 80.7793 164.142 81.3876C164.142 82.0245 164.013 82.6006 163.756 83.1159C163.498 83.6311 163.13 84.0712 162.65 84.4362C162.171 84.8012 161.594 85.0839 160.922 85.2842C160.256 85.4775 159.512 85.5741 158.689 85.5741C157.966 85.5741 157.254 85.4739 156.553 85.2735C155.859 85.0731 155.225 84.7726 154.653 84.3718C154.087 83.971 153.633 83.4772 153.289 82.8904C152.953 82.2964 152.785 81.6094 152.785 80.8294H154.846C154.846 81.3661 154.95 81.8277 155.157 82.2141C155.365 82.5934 155.648 82.9083 156.005 83.1588C156.37 83.4093 156.782 83.5953 157.24 83.717C157.705 83.8315 158.188 83.8887 158.689 83.8887C159.412 83.8887 160.024 83.7886 160.525 83.5882C161.026 83.3878 161.405 83.1015 161.662 82.7294C161.927 82.3573 162.06 81.9172 162.06 81.4091Z" fill="white"/>
</svg>
