<svg width="20" height="21" viewBox="0 0 20 21" fill="none" xmlns="http://www.w3.org/2000/svg">
<path d="M11.0779 0.753954C11.3719 0.753954 11.6349 0.936954 11.7339 1.21095L12.4399 3.16795C12.6929 3.23095 12.9099 3.29395 13.0939 3.35995C13.2949 3.43195 13.5539 3.54095 13.8739 3.68995L15.5179 2.81995C15.6521 2.74886 15.8057 2.7232 15.9557 2.74682C16.1057 2.77044 16.244 2.84207 16.3499 2.95095L17.7959 4.44595C17.9879 4.64495 18.0419 4.93595 17.9339 5.18995L17.1629 6.99695C17.2909 7.23195 17.3929 7.43295 17.4709 7.60095C17.5549 7.78395 17.6589 8.03595 17.7829 8.36095L19.5799 9.13095C19.8499 9.24595 20.0169 9.51595 19.9989 9.80495L19.8669 11.88C19.8579 12.0148 19.8095 12.1439 19.7277 12.2515C19.6459 12.359 19.5344 12.4402 19.4069 12.485L17.7049 13.09C17.6559 13.325 17.6049 13.526 17.5509 13.696C17.4638 13.9585 17.3643 14.2168 17.2529 14.47L18.1079 16.36C18.1682 16.4927 18.1845 16.6414 18.1542 16.7841C18.124 16.9268 18.0489 17.056 17.9399 17.153L16.3139 18.605C16.2068 18.7002 16.0732 18.7604 15.9309 18.7776C15.7886 18.7947 15.6445 18.768 15.5179 18.701L13.8419 17.813C13.5797 17.9518 13.3092 18.0744 13.0319 18.18L12.2999 18.454L11.6499 20.254C11.6017 20.3858 11.5148 20.5 11.4006 20.5815C11.2864 20.6631 11.1502 20.7082 11.0099 20.711L9.10988 20.754C8.96584 20.7577 8.82417 20.7168 8.70437 20.6367C8.58456 20.5567 8.49251 20.4415 8.44088 20.307L7.67488 18.28C7.41353 18.1906 7.15476 18.0939 6.89888 17.99C6.68959 17.8994 6.48347 17.8016 6.28088 17.697L4.38088 18.509C4.25569 18.5624 4.11767 18.5782 3.98362 18.5546C3.84958 18.531 3.72528 18.4689 3.62588 18.376L2.21988 17.057C2.1152 16.9592 2.04391 16.831 2.0161 16.6905C1.98828 16.5499 2.00535 16.4042 2.06488 16.274L2.88188 14.494C2.77322 14.2831 2.67249 14.0683 2.57988 13.85C2.47178 13.5827 2.37174 13.3122 2.27988 13.039L0.489879 12.494C0.34438 12.45 0.217474 12.3592 0.128869 12.2357C0.0402643 12.1122 -0.00507958 11.9629 -0.000120812 11.811L0.0698792 9.88995C0.0748618 9.76462 0.114016 9.64302 0.183107 9.53833C0.252198 9.43364 0.348597 9.34982 0.461879 9.29595L2.33988 8.39395C2.42688 8.07495 2.50288 7.82695 2.56988 7.64595C2.66422 7.4042 2.76899 7.16664 2.88388 6.93395L2.06988 5.21395C2.0081 5.08334 1.98935 4.93649 2.0163 4.79454C2.04325 4.65259 2.11453 4.52284 2.21988 4.42395L3.62388 3.09795C3.7223 3.00513 3.84545 2.94272 3.97851 2.91823C4.11156 2.89375 4.24886 2.90824 4.37388 2.95995L6.27188 3.74395C6.48188 3.60395 6.67188 3.49095 6.84388 3.39995C7.04888 3.29095 7.32288 3.17695 7.66788 3.05395L8.32788 1.21295C8.37667 1.07822 8.46586 0.961835 8.58327 0.879685C8.70068 0.797535 8.84058 0.753626 8.98388 0.753954H11.0779ZM10.0239 7.77295C8.35688 7.77295 7.00588 9.10795 7.00588 10.756C7.00588 12.404 8.35688 13.74 10.0239 13.74C11.6899 13.74 13.0409 12.404 13.0409 10.756C13.0409 9.10795 11.6909 7.77295 10.0239 7.77295Z" fill="white"/>
</svg>
