<svg width="38" height="47" viewBox="0 0 38 47" fill="none" xmlns="http://www.w3.org/2000/svg">
<path d="M19.8688 19.2844C19.8688 18.8194 20.0535 18.3735 20.3822 18.0447C20.711 17.716 21.1569 17.5313 21.6219 17.5313H29.8031C30.2681 17.5313 30.714 17.716 31.0428 18.0447C31.3715 18.3735 31.5563 18.8194 31.5563 19.2844C31.5563 19.7493 31.3715 20.1952 31.0428 20.524C30.714 20.8528 30.2681 21.0375 29.8031 21.0375H21.6219C21.1569 21.0375 20.711 20.8528 20.3822 20.524C20.0535 20.1952 19.8688 19.7493 19.8688 19.2844ZM21.6219 30.3875C21.1569 30.3875 20.711 30.5722 20.3822 30.901C20.0535 31.2298 19.8688 31.6757 19.8688 32.1406C19.8688 32.6056 20.0535 33.0515 20.3822 33.3803C20.711 33.7091 21.1569 33.8938 21.6219 33.8938H29.8031C30.2681 33.8938 30.714 33.7091 31.0428 33.3803C31.3715 33.0515 31.5563 32.6056 31.5563 32.1406C31.5563 31.6757 31.3715 31.2298 31.0428 30.901C30.714 30.5722 30.2681 30.3875 29.8031 30.3875H21.6219ZM15.8483 18.1858C16.0205 18.0253 16.1586 17.8317 16.2545 17.6167C16.3503 17.4016 16.4018 17.1695 16.406 16.9341C16.4101 16.6987 16.3668 16.4649 16.2786 16.2466C16.1905 16.0283 16.0592 15.83 15.8928 15.6635C15.7263 15.497 15.528 15.3658 15.3097 15.2776C15.0914 15.1894 14.8576 15.1461 14.6222 15.1503C14.3868 15.1544 14.1546 15.206 13.9396 15.3018C13.7245 15.3976 13.531 15.5358 13.3705 15.708L9.93438 19.1441L8.83575 18.0455C8.50342 17.7358 8.06386 17.5672 7.60968 17.5753C7.1555 17.5833 6.72216 17.7673 6.40096 18.0885C6.07976 18.4097 5.89577 18.843 5.88775 19.2972C5.87974 19.7514 6.04833 20.1909 6.358 20.5233L8.6955 22.8608C9.02421 23.1891 9.4698 23.3735 9.93438 23.3735C10.399 23.3735 10.8445 23.1891 11.1733 22.8608L15.8483 18.1858ZM15.8483 28.5643C16.1766 28.893 16.361 29.3385 16.361 29.8031C16.361 30.2677 16.1766 30.7133 15.8483 31.042L11.1733 35.717C10.8445 36.0453 10.399 36.2297 9.93438 36.2297C9.4698 36.2297 9.02421 36.0453 8.6955 35.717L6.358 33.3795C6.18576 33.219 6.04761 33.0255 5.95179 32.8104C5.85597 32.5954 5.80445 32.3632 5.80029 32.1278C5.79614 31.8924 5.83944 31.6586 5.92761 31.4403C6.01579 31.222 6.14702 31.0237 6.3135 30.8573C6.47997 30.6908 6.67827 30.5595 6.89657 30.4714C7.11486 30.3832 7.34868 30.3399 7.58407 30.344C7.81946 30.3482 8.05161 30.3997 8.26666 30.4955C8.48171 30.5914 8.67525 30.7295 8.83575 30.9018L9.93438 32.0004L13.3705 28.5643C13.6992 28.236 14.1448 28.0515 14.6094 28.0515C15.074 28.0515 15.5195 28.236 15.8483 28.5643ZM28.036 4.87135C27.938 3.54721 27.3429 2.30912 26.3699 1.40558C25.397 0.502044 24.1184 -7.78335e-05 22.7906 9.04942e-09H14.6094C13.3157 3.90935e-05 12.0675 0.476866 11.1032 1.33932C10.139 2.20178 9.52647 3.38935 9.38273 4.675H5.25938C3.8645 4.675 2.52676 5.22911 1.54044 6.21544C0.554112 7.20176 0 8.5395 0 9.93438V41.4906C0 42.8855 0.554112 44.2232 1.54044 45.2096C2.52676 46.1959 3.8645 46.75 5.25938 46.75H32.1406C32.8313 46.75 33.5152 46.614 34.1533 46.3497C34.7914 46.0854 35.3712 45.6979 35.8596 45.2096C36.3479 44.7212 36.7353 44.1414 36.9997 43.5033C37.264 42.8652 37.4 42.1813 37.4 41.4906V9.93438C37.4 9.24371 37.264 8.5598 36.9997 7.9217C36.7353 7.2836 36.3479 6.70381 35.8596 6.21544C35.3712 5.72706 34.7914 5.33965 34.1533 5.07535C33.5152 4.81104 32.8313 4.675 32.1406 4.675H28.0173L28.036 4.87135ZM28.036 4.8994L28.05 5.25938C28.05 5.13783 28.0453 5.01861 28.0383 4.8994H28.036ZM14.6094 10.5188H22.7906C24.6139 10.5188 26.2197 9.59076 27.1641 8.18125H32.1406C32.6056 8.18125 33.0515 8.36595 33.3803 8.69473C33.709 9.0235 33.8938 9.46942 33.8938 9.93438V41.4906C33.8938 41.9556 33.709 42.4015 33.3803 42.7303C33.0515 43.0591 32.6056 43.2438 32.1406 43.2438H5.25938C4.79442 43.2438 4.3485 43.0591 4.01973 42.7303C3.69095 42.4015 3.50625 41.9556 3.50625 41.4906V9.93438C3.50625 9.46942 3.69095 9.0235 4.01973 8.69473C4.3485 8.36595 4.79442 8.18125 5.25938 8.18125H10.2359C11.1803 9.59076 12.7861 10.5188 14.6094 10.5188ZM14.6094 3.50625H22.7906C23.2556 3.50625 23.7015 3.69095 24.0303 4.01973C24.359 4.3485 24.5438 4.79442 24.5438 5.25938C24.5438 5.72433 24.359 6.17025 24.0303 6.49902C23.7015 6.8278 23.2556 7.0125 22.7906 7.0125H14.6094C14.1444 7.0125 13.6985 6.8278 13.3697 6.49902C13.041 6.17025 12.8563 5.72433 12.8563 5.25938C12.8563 4.79442 13.041 4.3485 13.3697 4.01973C13.6985 3.69095 14.1444 3.50625 14.6094 3.50625Z" fill="white"/>
</svg>
