<svg width="48" height="57" viewBox="0 0 48 57" fill="none" xmlns="http://www.w3.org/2000/svg">
<path d="M10.3673 40.4999C7.63669 40.4999 5.41576 39.5634 3.75036 37.7043C2.08496 35.8451 0.992009 33.0862 0.355559 29.0722C-0.581604 23.1566 0.348313 18.1706 2.97382 15.0334C4.51966 13.1858 6.54857 12.1175 8.84075 11.9456C10.8032 11.7966 13.7367 12.5519 16.5699 16.9889C18.344 19.7673 19.693 23.4581 20.2715 27.1145C20.9707 31.5285 20.4502 34.778 18.6798 37.0464C17.274 38.8482 15.1123 39.9646 12.2537 40.3704C11.6291 40.4574 10.9986 40.5007 10.3673 40.4999Z" fill="black"/>
<path d="M14.0874 56.5C12.5828 56.5 11.0577 56.015 9.68407 55.083C7.70193 53.7311 6.32993 51.6465 5.8662 49.2821C5.5416 47.6015 5.73636 46.2659 6.46075 45.1963C7.63732 43.4594 9.74899 43.0685 11.9837 42.6535C12.2194 42.6099 12.4586 42.5664 12.7012 42.5194C13.2161 42.4208 13.7423 42.2901 14.2525 42.1628C16.1637 41.6882 18.141 41.1964 19.7732 42.3635C20.8655 43.143 21.4816 44.4683 21.6662 46.4126C21.8757 48.6562 21.3974 50.8951 20.3187 52.7179C19.1581 54.6795 17.4178 55.9761 15.4211 56.3704C14.9817 56.4568 14.5351 56.5001 14.0874 56.5Z" fill="black"/>
<path d="M38.205 30.2143C37.6095 30.2122 37.0148 30.1644 36.426 30.0713C33.7278 29.6541 31.6865 28.492 30.3591 26.6148C28.6872 24.256 28.1923 20.8782 28.856 16.2871C29.4023 12.4814 30.6727 8.64704 32.3399 5.76863C35.0016 1.17151 37.7751 0.374136 39.6385 0.514779C41.7961 0.67926 43.7086 1.77461 45.1706 3.68521C47.6669 6.94741 48.5519 12.1476 47.6635 18.3264C47.0625 22.498 46.0441 25.3526 44.4578 27.3025C42.8715 29.2524 40.7835 30.2143 38.205 30.2143Z" fill="black"/>
<path d="M33.9092 46.2143C33.4627 46.2143 33.0172 46.1709 32.5789 46.0848C30.5788 45.6904 28.8385 44.3939 27.6813 42.4324C26.6026 40.6097 26.1243 38.3708 26.3338 36.1274C26.5161 34.1785 27.1311 32.8579 28.2268 32.0772C29.859 30.9114 31.8363 31.402 33.7475 31.8778C34.2577 32.0039 34.7839 32.1345 35.2988 32.2343L36.0152 32.3684C38.251 32.7822 40.3627 33.1709 41.5392 34.9099C42.2636 35.9795 42.4584 37.3173 42.1338 38.9956C41.6705 41.3603 40.2984 43.4454 38.3159 44.7974C36.9343 45.7306 35.4092 46.2143 33.9092 46.2143Z" fill="black"/>
</svg>
