<svg width="21" height="25" viewBox="0 0 21 25" fill="none" xmlns="http://www.w3.org/2000/svg">
<path d="M4.53568 17.5C3.34105 17.5 2.3694 17.0903 1.64078 16.2769C0.912172 15.4635 0.434004 14.2565 0.155557 12.5004C-0.254452 9.91232 0.152387 7.73094 1.30105 6.35843C1.97735 5.55007 2.865 5.0827 3.86783 5.00748C4.72642 4.94229 6.00981 5.27276 7.24935 7.21393C8.02552 8.42948 8.6157 10.0442 8.86878 11.6439C9.1747 13.575 8.94698 14.9967 8.1724 15.9891C7.55739 16.7774 6.61162 17.2658 5.36098 17.4433C5.08772 17.4814 4.81188 17.5004 4.53568 17.5Z" fill="white"/>
<path d="M6.1632 24.5001C5.50494 24.5001 4.83771 24.288 4.23675 23.8802C3.36957 23.2887 2.76932 22.3767 2.56643 21.3423C2.42442 20.607 2.50963 20.0227 2.82655 19.5548C3.3413 18.7949 4.26515 18.6239 5.24283 18.4423C5.34598 18.4232 5.45062 18.4042 5.55676 18.3836C5.78199 18.3405 6.01221 18.2833 6.23545 18.2276C7.07161 18.02 7.93666 17.8048 8.65073 18.3154C9.12861 18.6565 9.39819 19.2363 9.47892 20.0869C9.5706 21.0685 9.36132 22.048 8.88942 22.8455C8.38165 23.7036 7.62024 24.2709 6.74671 24.4434C6.55448 24.4812 6.35906 24.5002 6.1632 24.5001Z" fill="white"/>
<path d="M16.7148 13.0001C16.4542 12.9991 16.1941 12.9782 15.9364 12.9375C14.756 12.755 13.8629 12.2466 13.2821 11.4253C12.5507 10.3933 12.3342 8.91553 12.6246 6.9069C12.8636 5.2419 13.4194 3.56439 14.1488 2.30509C15.3133 0.293847 16.5267 -0.0550044 17.3419 0.00652693C18.2859 0.0784873 19.1226 0.557702 19.7622 1.39359C20.8543 2.8208 21.2415 5.0959 20.8528 7.7991C20.5899 9.62419 20.1444 10.8731 19.4504 11.7262C18.7564 12.5793 17.8428 13.0001 16.7148 13.0001Z" fill="white"/>
<path d="M14.8353 20C14.6399 20 14.445 19.981 14.2533 19.9433C13.3783 19.7708 12.6169 19.2036 12.1106 18.3454C11.6387 17.548 11.4294 16.5685 11.5211 15.587C11.6008 14.7343 11.8699 14.1566 12.3493 13.815C13.0633 13.305 13.9284 13.5196 14.7646 13.7278C14.9878 13.7829 15.218 13.8401 15.4432 13.8837L15.7567 13.9424C16.7348 14.1235 17.6587 14.2935 18.1735 15.0543C18.4904 15.5223 18.5756 16.1076 18.4336 16.8418C18.2309 17.8764 17.6306 18.7886 16.7633 19.3801C16.1588 19.7884 15.4916 20 14.8353 20Z" fill="white"/>
</svg>
