<svg width="83" height="42" viewBox="0 0 83 42" fill="none" xmlns="http://www.w3.org/2000/svg">
<path d="M81.8207 14.6766C81.7922 14.6084 81.7636 14.5304 81.7445 14.4622C79.6579 8.84815 76.1992 4.35497 70.6825 1.88908C65.3373 -0.498833 59.144 -0.469593 53.7798 1.8501C49.4255 3.73119 45.862 6.74289 42.6129 10.1639C41.6601 11.1678 41.0599 11.2263 40.1642 10.1444C37.544 7.00604 34.3998 4.50117 30.7886 2.67856C24.119 -0.703511 17.2874 -1.07388 10.7512 2.66881C0.699149 8.4193 -2.66424 19.8033 2.19505 30.4369C6.2921 39.4037 17.6686 44.1893 26.9012 41.0217C32.0082 39.2673 36.172 36.1971 39.907 32.3569C41.5648 30.6513 41.5458 30.6513 43.1274 32.3472C47.6914 37.2692 52.9413 40.895 59.7253 41.7819C74.0173 43.6532 87.0516 29.0723 81.8207 14.6766ZM68.5101 38.702C62.2311 41.0704 56.1999 39.7741 50.788 36.0217C48.2726 34.277 46.1383 31.9573 43.9087 29.8131C43.5943 29.5012 43.4514 28.4778 43.6991 28.1659C47.4532 23.4193 50.788 18.2634 55.8188 14.7156C59.8491 11.8696 64.0796 11.6552 67.4048 14.1795C70.8064 16.7526 71.7877 21.5187 69.7011 25.2712C67.6621 28.9456 63.1553 30.6708 59.3537 29.1503C58.3913 28.7604 57.0098 27.971 55.8569 27.3862L57.2575 25.2712L50.7499 24.7936L53.5987 30.7975L54.6754 29.1698C60.7257 33.7507 68.7959 32.4349 71.9878 25.4661C73.7791 21.5577 73.3027 17.6396 70.6253 14.277C67.9765 10.9534 64.4607 9.59864 60.2398 10.4076C55.9236 11.2361 52.684 13.8871 49.8828 17.0548C46.4146 20.9827 43.2704 25.1932 39.8498 29.1601C36.4007 33.1659 32.437 36.5285 27.4729 38.4778C18.3546 42.0645 8.13101 38.0879 3.99585 28.9651C2.79531 26.314 2.16646 23.6532 2.17599 20.9534C2.17599 19.0138 2.49995 17.045 3.15738 15.047C4.13877 12.0645 5.87287 9.37447 8.14054 7.24971C12.714 2.97095 19.193 1.31403 25.1957 2.89298C30.9125 4.39396 35.3621 7.82476 39.0971 12.3277C39.3734 12.6591 39.4973 13.5655 39.2686 13.8579C35.4955 18.585 32.1797 23.7604 27.1585 27.3277C23.0614 30.2322 18.7738 30.4271 15.4295 27.8443C12.0947 25.2712 11.1609 20.5051 13.2571 16.7137C15.1913 13.2049 19.8314 11.431 23.5092 12.893C24.605 13.3316 25.6054 13.9944 26.6535 14.5304L25.3481 16.4992L31.8558 16.9768L29.0069 10.9729L27.9017 12.6493C21.9943 8.45829 14.2956 9.60838 11.0275 16.3335C9.05523 20.3881 9.56974 24.3452 12.3329 27.8053C15.0293 31.1776 18.6023 32.5031 22.8899 31.5967C27.673 30.5928 31.0078 27.3862 34.0758 23.8774C36.6674 20.9242 39.0209 17.7565 41.5267 14.7253C45.4142 9.99825 49.7304 5.76823 55.4948 3.51676C64.8227 -0.118716 75.1607 4.30624 79.1815 13.5655C83.4881 23.4875 78.6574 34.8716 68.5101 38.702Z" fill="black"/>
</svg>
