<svg width="21" height="31" viewBox="0 0 21 31" fill="none" xmlns="http://www.w3.org/2000/svg">
<g clip-path="url(#clip0_2469_8727)">
<path d="M20.818 0.264228C20.7483 0.181092 20.6619 0.114431 20.5647 0.0688205C20.4675 0.0232105 20.3618 -0.000266367 20.2549 2.27982e-06H0.744823C0.637946 -0.000266367 0.532278 0.0232105 0.435078 0.0688205C0.337878 0.114431 0.251449 0.181092 0.181726 0.264228C0.111402 0.346786 0.0594021 0.444045 0.0293256 0.54927C-0.000750871 0.654495 -0.00818457 0.765173 0.00753928 0.873638L0.431504 3.89145L0.841229 6.80806L4.12778 30.2129L4.14641 30.3445C4.17282 30.5261 4.26167 30.692 4.39689 30.8122C4.53212 30.9325 4.70479 30.9991 4.88369 31H16.1117C16.2906 30.9991 16.4632 30.9325 16.5985 30.8122C16.7337 30.692 16.8225 30.5261 16.8489 30.3445L16.8676 30.2129L20.1541 6.80806L20.5737 3.89145L20.9977 0.873638C21.0121 0.764775 21.0036 0.653989 20.9726 0.548826C20.9416 0.443663 20.8889 0.346592 20.818 0.264228ZM20.1738 1.18509L19.7937 3.89145L19.384 6.80806L16.1347 29.9139C16.1228 29.9968 16.0824 30.0726 16.0207 30.1275C15.9589 30.1824 15.88 30.2127 15.7983 30.2129H5.20139C5.11971 30.2127 5.04081 30.1824 4.97908 30.1275C4.91735 30.0726 4.87689 29.9968 4.86507 29.9139L1.62124 6.80806L1.21151 3.89145L0.831368 1.18509C0.824471 1.13572 0.827978 1.08541 0.841648 1.03755C0.855319 0.989694 0.878836 0.945405 0.910613 0.907675C0.94239 0.869945 0.981686 0.839655 1.02585 0.818847C1.07001 0.798039 1.11801 0.7872 1.1666 0.787061H19.8375C19.8862 0.787039 19.9343 0.79776 19.9786 0.818497C20.0229 0.839234 20.0623 0.869502 20.0942 0.907251C20.1261 0.945 20.1497 0.989345 20.1635 1.03728C20.1772 1.08522 20.1808 1.13563 20.1738 1.18509Z" fill="white"/>
<path d="M19.8346 1.50216L19.4676 4.11295L19.0721 6.92388H1.92832L1.53283 4.11295L1.16584 1.50216C1.15927 1.45454 1.16271 1.40604 1.17591 1.35989C1.18912 1.31375 1.21178 1.27103 1.24239 1.23462C1.273 1.1982 1.31084 1.16892 1.35337 1.14874C1.39591 1.12856 1.44215 1.11796 1.48901 1.11763H19.5103C19.5572 1.1178 19.6036 1.12829 19.6463 1.1484C19.689 1.1685 19.7269 1.19776 19.7577 1.23419C19.7884 1.27063 19.8111 1.3134 19.8244 1.35962C19.8377 1.40585 19.8411 1.45445 19.8346 1.50216Z" fill="white"/>
</g>
<defs>
<clipPath id="clip0_2469_8727">
<rect width="21" height="31" fill="white"/>
</clipPath>
</defs>
</svg>
